<mxfile host="app.diagrams.net" agent="Mozilla/5.0 (Windows NT 10.0; Win64; x64) AppleWebKit/537.36 (KHTML, like Gecko) Chrome/138.0.0.0 Safari/537.36 Edg/138.0.0.0" version="27.2.0">
  <diagram id="HcBuq5jWDBBeaZzb4dav" name="Página-1">
    <mxGraphModel dx="2853" dy="1091" grid="1" gridSize="10" guides="1" tooltips="1" connect="1" arrows="1" fold="1" page="1" pageScale="1" pageWidth="827" pageHeight="1169" math="0" shadow="0">
      <root>
        <mxCell id="0" />
        <mxCell id="1" parent="0" />
        <mxCell id="19" value="Módulo – Tipos de Contrato" style="whiteSpace=wrap;strokeWidth=2;rounded=1;labelBackgroundColor=none;fillColor=#182E3E;strokeColor=#FFFFFF;fontColor=#FFFFFF;" parent="1" vertex="1">
          <mxGeometry x="-463.5" y="1880" width="260" height="78" as="geometry" />
        </mxCell>
        <mxCell id="20" value="Obras e serviços de engenharia" style="whiteSpace=wrap;strokeWidth=2;rounded=1;labelBackgroundColor=none;fillColor=#182E3E;strokeColor=#FFFFFF;fontColor=#FFFFFF;" parent="1" vertex="1">
          <mxGeometry x="-790" y="2040" width="260" height="78" as="geometry" />
        </mxCell>
        <mxCell id="21" value="Com medições" style="whiteSpace=wrap;strokeWidth=2;rounded=1;labelBackgroundColor=none;fillColor=#182E3E;strokeColor=#FFFFFF;fontColor=#FFFFFF;" parent="1" vertex="1">
          <mxGeometry x="-741" y="2180" width="163" height="54" as="geometry" />
        </mxCell>
        <mxCell id="22" value="Aquisições" style="whiteSpace=wrap;strokeWidth=2;rounded=1;labelBackgroundColor=none;fillColor=#182E3E;strokeColor=#FFFFFF;fontColor=#FFFFFF;" parent="1" vertex="1">
          <mxGeometry x="-480" y="2052" width="134" height="54" as="geometry" />
        </mxCell>
        <mxCell id="23" value="Despesas contínuas" style="whiteSpace=wrap;strokeWidth=2;rounded=1;labelBackgroundColor=none;fillColor=#182E3E;strokeColor=#FFFFFF;fontColor=#FFFFFF;" parent="1" vertex="1">
          <mxGeometry x="-295" y="2052" width="197" height="54" as="geometry" />
        </mxCell>
        <mxCell id="24" value="Concessões" style="whiteSpace=wrap;strokeWidth=2;rounded=1;labelBackgroundColor=none;fillColor=#182E3E;strokeColor=#FFFFFF;fontColor=#FFFFFF;" parent="1" vertex="1">
          <mxGeometry x="-48" y="2052" width="140" height="54" as="geometry" />
        </mxCell>
        <mxCell id="25" value="Módulo  – Gestão Contratual" style="whiteSpace=wrap;strokeWidth=2;rounded=1;labelBackgroundColor=none;fillColor=#182E3E;strokeColor=#FFFFFF;fontColor=#FFFFFF;" parent="1" vertex="1">
          <mxGeometry x="96" y="2320" width="260" height="78" as="geometry" />
        </mxCell>
        <mxCell id="26" value="Cadastro de contratos" style="whiteSpace=wrap;strokeWidth=2;rounded=1;labelBackgroundColor=none;fillColor=#182E3E;strokeColor=#FFFFFF;fontColor=#FFFFFF;" parent="1" vertex="1">
          <mxGeometry x="-300" y="2472" width="218" height="54" as="geometry" />
        </mxCell>
        <mxCell id="27" value="Upload de documentos" style="whiteSpace=wrap;strokeWidth=2;rounded=1;labelBackgroundColor=none;fillColor=#182E3E;strokeColor=#FFFFFF;fontColor=#FFFFFF;" parent="1" vertex="1">
          <mxGeometry x="-32" y="2472" width="224" height="54" as="geometry" />
        </mxCell>
        <mxCell id="28" value="Alertas de prazos e vencimentos" style="whiteSpace=wrap;strokeWidth=2;rounded=1;labelBackgroundColor=none;fillColor=#182E3E;strokeColor=#FFFFFF;fontColor=#FFFFFF;" parent="1" vertex="1">
          <mxGeometry x="242" y="2460" width="260" height="78" as="geometry" />
        </mxCell>
        <mxCell id="29" value="Histórico de modificações" style="whiteSpace=wrap;strokeWidth=2;rounded=1;labelBackgroundColor=none;fillColor=#182E3E;strokeColor=#FFFFFF;fontColor=#FFFFFF;" parent="1" vertex="1">
          <mxGeometry x="552" y="2472" width="245" height="54" as="geometry" />
        </mxCell>
        <mxCell id="30" value="Módulo – Fiscalização e Medições" style="whiteSpace=wrap;strokeWidth=2;rounded=1;labelBackgroundColor=none;fillColor=#182E3E;strokeColor=#FFFFFF;fontColor=#FFFFFF;" parent="1" vertex="1">
          <mxGeometry x="-475" y="2730" width="260" height="78" as="geometry" />
        </mxCell>
        <mxCell id="31" value="Registro de fiscalizações" style="whiteSpace=wrap;strokeWidth=2;rounded=1;labelBackgroundColor=none;fillColor=#182E3E;strokeColor=#FFFFFF;fontColor=#FFFFFF;" parent="1" vertex="1">
          <mxGeometry x="-760" y="2882" width="235" height="54" as="geometry" />
        </mxCell>
        <mxCell id="32" value="Acompanhamento das medições" style="whiteSpace=wrap;strokeWidth=2;rounded=1;labelBackgroundColor=none;fillColor=#182E3E;strokeColor=#FFFFFF;fontColor=#FFFFFF;" parent="1" vertex="1">
          <mxGeometry x="-475" y="2870" width="260" height="78" as="geometry" />
        </mxCell>
        <mxCell id="33" value="Possível Integração com SEI" style="whiteSpace=wrap;strokeWidth=2;rounded=1;labelBackgroundColor=none;fillColor=#182E3E;strokeColor=#FFFFFF;fontColor=#FFFFFF;" parent="1" vertex="1">
          <mxGeometry x="-165" y="2882" width="196" height="54" as="geometry" />
        </mxCell>
        <mxCell id="34" value="Módulo – Aditivos, Reajustes, Reequilíbrios" style="whiteSpace=wrap;strokeWidth=2;rounded=1;labelBackgroundColor=none;fillColor=#182E3E;strokeColor=#FFFFFF;fontColor=#FFFFFF;" parent="1" vertex="1">
          <mxGeometry x="212.5" y="3060" width="260" height="78" as="geometry" />
        </mxCell>
        <mxCell id="35" value="Cadastro e controle" style="whiteSpace=wrap;strokeWidth=2;rounded=1;labelBackgroundColor=none;fillColor=#182E3E;strokeColor=#FFFFFF;fontColor=#FFFFFF;" parent="1" vertex="1">
          <mxGeometry x="-36.5" y="3212" width="201" height="54" as="geometry" />
        </mxCell>
        <mxCell id="36" value="Fluxo de aprovação interna" style="whiteSpace=wrap;strokeWidth=2;rounded=1;labelBackgroundColor=none;fillColor=#182E3E;strokeColor=#FFFFFF;fontColor=#FFFFFF;" parent="1" vertex="1">
          <mxGeometry x="214.5" y="3212" width="256" height="54" as="geometry" />
        </mxCell>
        <mxCell id="37" value="Anexação ao processo principal" style="whiteSpace=wrap;strokeWidth=2;rounded=1;labelBackgroundColor=none;fillColor=#182E3E;strokeColor=#FFFFFF;fontColor=#FFFFFF;" parent="1" vertex="1">
          <mxGeometry x="520.5" y="3200" width="260" height="78" as="geometry" />
        </mxCell>
        <mxCell id="38" value="Módulo – Relatórios e Transparência" style="whiteSpace=wrap;strokeWidth=2;rounded=1;labelBackgroundColor=none;fillColor=#182E3E;strokeColor=#FFFFFF;fontColor=#FFFFFF;" parent="1" vertex="1">
          <mxGeometry x="-492" y="3370" width="260" height="78" as="geometry" />
        </mxCell>
        <mxCell id="39" value="Relatórios por tipo de contrato, status, fase" style="whiteSpace=wrap;strokeWidth=2;rounded=1;labelBackgroundColor=none;fillColor=#182E3E;strokeColor=#FFFFFF;fontColor=#FFFFFF;" parent="1" vertex="1">
          <mxGeometry x="-802" y="3510" width="260" height="78" as="geometry" />
        </mxCell>
        <mxCell id="40" value="Exportações para PDF, Excel" style="whiteSpace=wrap;strokeWidth=2;rounded=1;labelBackgroundColor=none;fillColor=#182E3E;strokeColor=#FFFFFF;fontColor=#FFFFFF;" parent="1" vertex="1">
          <mxGeometry x="-492" y="3510" width="260" height="78" as="geometry" />
        </mxCell>
        <mxCell id="41" value="Painel de indicadores" style="whiteSpace=wrap;strokeWidth=2;rounded=1;labelBackgroundColor=none;fillColor=#182E3E;strokeColor=#FFFFFF;fontColor=#FFFFFF;" parent="1" vertex="1">
          <mxGeometry x="-182" y="3522" width="213" height="54" as="geometry" />
        </mxCell>
        <mxCell id="57" value="" style="curved=1;startArrow=none;endArrow=block;exitX=0;exitY=0.8;entryX=0.5;entryY=0;labelBackgroundColor=none;strokeColor=#23445D;fontColor=default;" parent="1" source="19" target="20" edge="1">
          <mxGeometry relative="1" as="geometry">
            <Array as="points">
              <mxPoint x="-660" y="2003" />
            </Array>
          </mxGeometry>
        </mxCell>
        <mxCell id="58" value="" style="curved=1;startArrow=none;endArrow=block;exitX=0.5;exitY=1;entryX=0.5;entryY=0;labelBackgroundColor=none;strokeColor=#23445D;fontColor=default;" parent="1" source="20" target="21" edge="1">
          <mxGeometry relative="1" as="geometry">
            <Array as="points" />
          </mxGeometry>
        </mxCell>
        <mxCell id="59" value="" style="curved=1;startArrow=none;endArrow=block;exitX=0.25;exitY=1;entryX=0.5;entryY=0;labelBackgroundColor=none;strokeColor=#23445D;fontColor=default;" parent="1" source="19" target="22" edge="1">
          <mxGeometry relative="1" as="geometry">
            <Array as="points">
              <mxPoint x="-412" y="2003" />
            </Array>
          </mxGeometry>
        </mxCell>
        <mxCell id="60" value="" style="curved=1;startArrow=none;endArrow=block;exitX=0.75;exitY=1;entryX=0.5;entryY=0;labelBackgroundColor=none;strokeColor=#23445D;fontColor=default;" parent="1" source="19" target="23" edge="1">
          <mxGeometry relative="1" as="geometry">
            <Array as="points">
              <mxPoint x="-196" y="2003" />
            </Array>
          </mxGeometry>
        </mxCell>
        <mxCell id="61" value="" style="curved=1;startArrow=none;endArrow=block;exitX=1;exitY=0.83;entryX=0.5;entryY=0;labelBackgroundColor=none;strokeColor=#23445D;fontColor=default;" parent="1" source="19" target="24" edge="1">
          <mxGeometry relative="1" as="geometry">
            <Array as="points">
              <mxPoint x="22" y="2003" />
            </Array>
          </mxGeometry>
        </mxCell>
        <mxCell id="62" value="" style="curved=1;startArrow=none;endArrow=block;exitX=0;exitY=0.76;entryX=0.5;entryY=0;labelBackgroundColor=none;strokeColor=#23445D;fontColor=default;" parent="1" source="25" target="26" edge="1">
          <mxGeometry relative="1" as="geometry">
            <Array as="points">
              <mxPoint x="-191" y="2423" />
            </Array>
          </mxGeometry>
        </mxCell>
        <mxCell id="63" value="" style="curved=1;startArrow=none;endArrow=block;exitX=0.16;exitY=1;entryX=0.5;entryY=0;labelBackgroundColor=none;strokeColor=#23445D;fontColor=default;" parent="1" source="25" target="27" edge="1">
          <mxGeometry relative="1" as="geometry">
            <Array as="points">
              <mxPoint x="80" y="2423" />
            </Array>
          </mxGeometry>
        </mxCell>
        <mxCell id="64" value="" style="curved=1;startArrow=none;endArrow=block;exitX=0.84;exitY=1;entryX=0.5;entryY=0;labelBackgroundColor=none;strokeColor=#23445D;fontColor=default;" parent="1" source="25" target="28" edge="1">
          <mxGeometry relative="1" as="geometry">
            <Array as="points">
              <mxPoint x="372" y="2423" />
            </Array>
          </mxGeometry>
        </mxCell>
        <mxCell id="65" value="" style="curved=1;startArrow=none;endArrow=block;exitX=1;exitY=0.74;entryX=0.5;entryY=0;labelBackgroundColor=none;strokeColor=#23445D;fontColor=default;" parent="1" source="25" target="29" edge="1">
          <mxGeometry relative="1" as="geometry">
            <Array as="points">
              <mxPoint x="674" y="2423" />
            </Array>
          </mxGeometry>
        </mxCell>
        <mxCell id="66" value="" style="curved=1;startArrow=none;endArrow=block;exitX=0;exitY=0.86;entryX=0.5;entryY=0;labelBackgroundColor=none;strokeColor=#23445D;fontColor=default;" parent="1" source="30" target="31" edge="1">
          <mxGeometry relative="1" as="geometry">
            <Array as="points">
              <mxPoint x="-643" y="2833" />
            </Array>
          </mxGeometry>
        </mxCell>
        <mxCell id="67" value="" style="curved=1;startArrow=none;endArrow=block;exitX=0.5;exitY=1;entryX=0.5;entryY=0;labelBackgroundColor=none;strokeColor=#23445D;fontColor=default;" parent="1" source="30" target="32" edge="1">
          <mxGeometry relative="1" as="geometry">
            <Array as="points" />
          </mxGeometry>
        </mxCell>
        <mxCell id="68" value="" style="curved=1;startArrow=none;endArrow=block;exitX=1;exitY=0.88;entryX=0.5;entryY=0;labelBackgroundColor=none;strokeColor=#23445D;fontColor=default;" parent="1" source="30" target="33" edge="1">
          <mxGeometry relative="1" as="geometry">
            <Array as="points">
              <mxPoint x="-67" y="2833" />
            </Array>
          </mxGeometry>
        </mxCell>
        <mxCell id="69" value="" style="curved=1;startArrow=none;endArrow=block;exitX=0;exitY=0.88;entryX=0.5;entryY=0;labelBackgroundColor=none;strokeColor=#23445D;fontColor=default;" parent="1" source="34" target="35" edge="1">
          <mxGeometry relative="1" as="geometry">
            <Array as="points">
              <mxPoint x="63.5" y="3163" />
            </Array>
          </mxGeometry>
        </mxCell>
        <mxCell id="70" value="" style="curved=1;startArrow=none;endArrow=block;exitX=0.5;exitY=1;entryX=0.5;entryY=0;labelBackgroundColor=none;strokeColor=#23445D;fontColor=default;" parent="1" source="34" target="36" edge="1">
          <mxGeometry relative="1" as="geometry">
            <Array as="points" />
          </mxGeometry>
        </mxCell>
        <mxCell id="71" value="" style="curved=1;startArrow=none;endArrow=block;exitX=1;exitY=0.85;entryX=0.5;entryY=0;labelBackgroundColor=none;strokeColor=#23445D;fontColor=default;" parent="1" source="34" target="37" edge="1">
          <mxGeometry relative="1" as="geometry">
            <Array as="points">
              <mxPoint x="650.5" y="3163" />
            </Array>
          </mxGeometry>
        </mxCell>
        <mxCell id="72" value="" style="curved=1;startArrow=none;endArrow=block;exitX=0;exitY=0.84;entryX=0.5;entryY=0;labelBackgroundColor=none;strokeColor=#23445D;fontColor=default;" parent="1" source="38" target="39" edge="1">
          <mxGeometry relative="1" as="geometry">
            <Array as="points">
              <mxPoint x="-672" y="3473" />
            </Array>
          </mxGeometry>
        </mxCell>
        <mxCell id="73" value="" style="curved=1;startArrow=none;endArrow=block;exitX=0.5;exitY=1;entryX=0.5;entryY=0;labelBackgroundColor=none;strokeColor=#23445D;fontColor=default;" parent="1" source="38" target="40" edge="1">
          <mxGeometry relative="1" as="geometry">
            <Array as="points" />
          </mxGeometry>
        </mxCell>
        <mxCell id="74" value="" style="curved=1;startArrow=none;endArrow=block;exitX=1;exitY=0.87;entryX=0.5;entryY=0;labelBackgroundColor=none;strokeColor=#23445D;fontColor=default;" parent="1" source="38" target="41" edge="1">
          <mxGeometry relative="1" as="geometry">
            <Array as="points">
              <mxPoint x="-76" y="3473" />
            </Array>
          </mxGeometry>
        </mxCell>
        <mxCell id="HAM1l17IBcfT3V45FcVH-151" value="Fase de planejamento da demanda" style="swimlane;horizontal=0;whiteSpace=wrap;html=1;strokeColor=#FFFFFF;fontColor=#FFFFFF;fillColor=#182E3E;" parent="1" vertex="1">
          <mxGeometry x="-740" y="20" width="1167" height="540" as="geometry">
            <mxRectangle x="-250" y="20" width="40" height="220" as="alternateBounds" />
          </mxGeometry>
        </mxCell>
        <mxCell id="2" value="Módulo 1 – Plano de Contratação Anual" style="whiteSpace=wrap;strokeWidth=2;rounded=1;labelBackgroundColor=none;fillColor=#182E3E;strokeColor=#FFFFFF;fontColor=#FFFFFF;" parent="HAM1l17IBcfT3V45FcVH-151" vertex="1">
          <mxGeometry x="370" y="20" width="260" height="78" as="geometry" />
        </mxCell>
        <mxCell id="3" value="Cadastro de demandas por unidade" style="whiteSpace=wrap;strokeWidth=2;rounded=1;labelBackgroundColor=none;fillColor=#182E3E;strokeColor=#FFFFFF;fontColor=#FFFFFF;" parent="HAM1l17IBcfT3V45FcVH-151" vertex="1">
          <mxGeometry x="40" y="202" width="260" height="52" as="geometry" />
        </mxCell>
        <mxCell id="4" value="Acompanhamento das propostas incluídas no plano" style="whiteSpace=wrap;strokeWidth=2;rounded=1;labelBackgroundColor=none;fillColor=#182E3E;strokeColor=#FFFFFF;fontColor=#FFFFFF;" parent="HAM1l17IBcfT3V45FcVH-151" vertex="1">
          <mxGeometry x="330" y="170" width="260" height="42" as="geometry" />
        </mxCell>
        <mxCell id="5" value="Gerador de PDF ou exportação do plano" style="whiteSpace=wrap;strokeWidth=2;rounded=1;labelBackgroundColor=none;fillColor=#182E3E;strokeColor=#FFFFFF;fontColor=#FFFFFF;" parent="HAM1l17IBcfT3V45FcVH-151" vertex="1">
          <mxGeometry x="600" y="410" width="180" height="40" as="geometry" />
        </mxCell>
        <mxCell id="42" value="" style="curved=1;startArrow=none;endArrow=block;exitX=0;exitY=0.84;entryX=0.5;entryY=0;labelBackgroundColor=none;strokeColor=#23445D;fontColor=default;" parent="HAM1l17IBcfT3V45FcVH-151" source="2" target="3" edge="1">
          <mxGeometry relative="1" as="geometry">
            <Array as="points">
              <mxPoint x="81" y="153" />
            </Array>
          </mxGeometry>
        </mxCell>
        <mxCell id="43" value="" style="curved=1;startArrow=none;endArrow=block;exitX=0.5;exitY=1;entryX=0.5;entryY=0;labelBackgroundColor=none;strokeColor=#23445D;fontColor=default;" parent="HAM1l17IBcfT3V45FcVH-151" source="2" target="4" edge="1">
          <mxGeometry relative="1" as="geometry">
            <Array as="points" />
          </mxGeometry>
        </mxCell>
        <mxCell id="44" value="" style="curved=1;startArrow=none;endArrow=block;entryX=0.5;entryY=0;labelBackgroundColor=none;strokeColor=#23445D;fontColor=default;" parent="HAM1l17IBcfT3V45FcVH-151" source="2" target="5" edge="1">
          <mxGeometry relative="1" as="geometry">
            <Array as="points">
              <mxPoint x="701" y="153" />
            </Array>
          </mxGeometry>
        </mxCell>
        <mxCell id="HAM1l17IBcfT3V45FcVH-146" value="Criar os estados&amp;nbsp;&lt;span style=&quot;background-color: transparent; color: light-dark(rgb(255, 255, 255), rgb(18, 18, 18));&quot;&gt;possíveis do PCA (Open, Closed, Changes ongoing, Finished)&lt;/span&gt;" style="label;whiteSpace=wrap;html=1;image=img/clipart/Gear_128x128.png;strokeColor=#FFFFFF;fontColor=#FFFFFF;fillColor=#182E3E;arcSize=50;" parent="HAM1l17IBcfT3V45FcVH-151" vertex="1">
          <mxGeometry x="130" y="290" width="550" height="60" as="geometry" />
        </mxCell>
        <mxCell id="HAM1l17IBcfT3V45FcVH-152" value="Etapa Preliminar (pré compra)" style="swimlane;horizontal=0;whiteSpace=wrap;html=1;strokeColor=#FFFFFF;fontColor=#FFFFFF;fillColor=#182E3E;" parent="1" vertex="1">
          <mxGeometry x="-399.5" y="585" width="1170" height="540" as="geometry" />
        </mxCell>
        <mxCell id="HAM1l17IBcfT3V45FcVH-153" value="Criação dos documentos templaterizados (modelos para preencher)&lt;br&gt;para resolver o problema da padronização" style="label;whiteSpace=wrap;html=1;image=img/clipart/Gear_128x128.png;strokeColor=#FFFFFF;fontColor=#FFFFFF;fillColor=#182E3E;arcSize=50;" parent="HAM1l17IBcfT3V45FcVH-152" vertex="1">
          <mxGeometry x="656" y="135" width="474" height="60" as="geometry" />
        </mxCell>
        <mxCell id="HAM1l17IBcfT3V45FcVH-159" style="edgeStyle=orthogonalEdgeStyle;rounded=0;orthogonalLoop=1;jettySize=auto;html=1;entryX=0;entryY=0.5;entryDx=0;entryDy=0;strokeColor=#23445D;" parent="HAM1l17IBcfT3V45FcVH-152" source="HAM1l17IBcfT3V45FcVH-157" target="HAM1l17IBcfT3V45FcVH-155" edge="1">
          <mxGeometry relative="1" as="geometry" />
        </mxCell>
        <mxCell id="HAM1l17IBcfT3V45FcVH-157" value="Requisição dos Objetos" style="whiteSpace=wrap;strokeWidth=2;rounded=1;labelBackgroundColor=none;fillColor=#182E3E;strokeColor=#FFFFFF;fontColor=#FFFFFF;" parent="HAM1l17IBcfT3V45FcVH-152" vertex="1">
          <mxGeometry x="70" y="25" width="210" height="70" as="geometry" />
        </mxCell>
        <mxCell id="HAM1l17IBcfT3V45FcVH-167" style="edgeStyle=orthogonalEdgeStyle;rounded=0;orthogonalLoop=1;jettySize=auto;html=1;strokeColor=#23445D;" parent="HAM1l17IBcfT3V45FcVH-152" source="HAM1l17IBcfT3V45FcVH-156" target="HAM1l17IBcfT3V45FcVH-162" edge="1">
          <mxGeometry relative="1" as="geometry" />
        </mxCell>
        <mxCell id="HAM1l17IBcfT3V45FcVH-156" value="Gestão de riscos" style="whiteSpace=wrap;strokeWidth=2;rounded=1;labelBackgroundColor=none;fillColor=#182E3E;strokeColor=#FFFFFF;fontColor=#FFFFFF;" parent="HAM1l17IBcfT3V45FcVH-152" vertex="1">
          <mxGeometry x="196" y="365" width="154" height="66.5" as="geometry" />
        </mxCell>
        <mxCell id="HAM1l17IBcfT3V45FcVH-161" style="edgeStyle=orthogonalEdgeStyle;rounded=0;orthogonalLoop=1;jettySize=auto;html=1;entryX=0.5;entryY=0;entryDx=0;entryDy=0;strokeColor=#23445D;" parent="HAM1l17IBcfT3V45FcVH-152" source="HAM1l17IBcfT3V45FcVH-155" target="HAM1l17IBcfT3V45FcVH-160" edge="1">
          <mxGeometry relative="1" as="geometry" />
        </mxCell>
        <mxCell id="HAM1l17IBcfT3V45FcVH-164" style="edgeStyle=orthogonalEdgeStyle;rounded=0;orthogonalLoop=1;jettySize=auto;html=1;exitX=0.75;exitY=1;exitDx=0;exitDy=0;strokeColor=#23445D;" parent="HAM1l17IBcfT3V45FcVH-152" source="HAM1l17IBcfT3V45FcVH-155" target="HAM1l17IBcfT3V45FcVH-163" edge="1">
          <mxGeometry relative="1" as="geometry" />
        </mxCell>
        <mxCell id="HAM1l17IBcfT3V45FcVH-155" value="Elaboração dos documentos Tecnicos aplicáveis" style="whiteSpace=wrap;strokeWidth=2;rounded=1;labelBackgroundColor=none;fillColor=#182E3E;strokeColor=#FFFFFF;fontColor=#FFFFFF;" parent="HAM1l17IBcfT3V45FcVH-152" vertex="1">
          <mxGeometry x="240" y="105" width="280" height="79" as="geometry" />
        </mxCell>
        <mxCell id="HAM1l17IBcfT3V45FcVH-165" style="edgeStyle=orthogonalEdgeStyle;rounded=0;orthogonalLoop=1;jettySize=auto;html=1;exitX=0.75;exitY=1;exitDx=0;exitDy=0;strokeColor=#23445D;entryX=0.5;entryY=0;entryDx=0;entryDy=0;" parent="HAM1l17IBcfT3V45FcVH-152" source="HAM1l17IBcfT3V45FcVH-160" target="HAM1l17IBcfT3V45FcVH-156" edge="1">
          <mxGeometry relative="1" as="geometry" />
        </mxCell>
        <mxCell id="HAM1l17IBcfT3V45FcVH-160" value="Elaboração do ETPS se aplicável" style="whiteSpace=wrap;strokeWidth=2;rounded=1;labelBackgroundColor=none;fillColor=#182E3E;strokeColor=#FFFFFF;fontColor=#FFFFFF;" parent="HAM1l17IBcfT3V45FcVH-152" vertex="1">
          <mxGeometry x="60" y="230.5" width="280" height="79" as="geometry" />
        </mxCell>
        <mxCell id="HAM1l17IBcfT3V45FcVH-169" style="edgeStyle=orthogonalEdgeStyle;rounded=0;orthogonalLoop=1;jettySize=auto;html=1;strokeColor=#23445D;" parent="HAM1l17IBcfT3V45FcVH-152" source="HAM1l17IBcfT3V45FcVH-162" target="HAM1l17IBcfT3V45FcVH-168" edge="1">
          <mxGeometry relative="1" as="geometry" />
        </mxCell>
        <mxCell id="HAM1l17IBcfT3V45FcVH-162" value="Elaboração da minuta de contrato" style="whiteSpace=wrap;strokeWidth=2;rounded=1;labelBackgroundColor=none;fillColor=#182E3E;strokeColor=#FFFFFF;fontColor=#FFFFFF;" parent="HAM1l17IBcfT3V45FcVH-152" vertex="1">
          <mxGeometry x="590" y="355" width="234" height="133" as="geometry" />
        </mxCell>
        <mxCell id="HAM1l17IBcfT3V45FcVH-166" style="edgeStyle=orthogonalEdgeStyle;rounded=0;orthogonalLoop=1;jettySize=auto;html=1;exitX=0.5;exitY=1;exitDx=0;exitDy=0;strokeColor=#23445D;entryX=0.75;entryY=0;entryDx=0;entryDy=0;" parent="HAM1l17IBcfT3V45FcVH-152" source="HAM1l17IBcfT3V45FcVH-163" target="HAM1l17IBcfT3V45FcVH-156" edge="1">
          <mxGeometry relative="1" as="geometry">
            <mxPoint x="400" y="420" as="targetPoint" />
          </mxGeometry>
        </mxCell>
        <mxCell id="HAM1l17IBcfT3V45FcVH-163" value="Elaboração do Termo de Referência" style="whiteSpace=wrap;strokeWidth=2;rounded=1;labelBackgroundColor=none;fillColor=#182E3E;strokeColor=#FFFFFF;fontColor=#FFFFFF;" parent="HAM1l17IBcfT3V45FcVH-152" vertex="1">
          <mxGeometry x="350" y="245" width="280" height="79" as="geometry" />
        </mxCell>
        <mxCell id="HAM1l17IBcfT3V45FcVH-168" value="Gerador de PDF ou exportação dos documentos padronizados criados nessa etapa e minuta a ser encaminhada à SUPEL" style="whiteSpace=wrap;strokeWidth=2;rounded=1;labelBackgroundColor=none;fillColor=#182E3E;strokeColor=#FFFFFF;fontColor=#FFFFFF;" parent="HAM1l17IBcfT3V45FcVH-152" vertex="1">
          <mxGeometry x="950" y="435" width="180" height="70" as="geometry" />
        </mxCell>
        <mxCell id="HAM1l17IBcfT3V45FcVH-170" value="Fase EXTER?NA aos cuidados da SUPEL" style="swimlane;horizontal=0;whiteSpace=wrap;html=1;strokeColor=#FFFFFF;fontColor=#FFFFFF;fillColor=#182E3E;" parent="1" vertex="1">
          <mxGeometry x="-780" y="1180" width="1406.5" height="380" as="geometry" />
        </mxCell>
        <mxCell id="HAM1l17IBcfT3V45FcVH-120" value="Gestão de cronograma, anexos e documentos" style="whiteSpace=wrap;strokeWidth=2;rounded=1;labelBackgroundColor=none;fillColor=#182E3E;strokeColor=#FFFFFF;fontColor=#FFFFFF;" parent="HAM1l17IBcfT3V45FcVH-170" vertex="1">
          <mxGeometry x="1111" y="130" width="260" height="78" as="geometry" />
        </mxCell>
        <mxCell id="HAM1l17IBcfT3V45FcVH-121" value="Concorrência" style="whiteSpace=wrap;strokeWidth=2;rounded=1;labelBackgroundColor=none;fillColor=#182E3E;strokeColor=#FFFFFF;fontColor=#FFFFFF;" parent="HAM1l17IBcfT3V45FcVH-170" vertex="1">
          <mxGeometry x="133" y="142" width="154" height="54" as="geometry" />
        </mxCell>
        <mxCell id="HAM1l17IBcfT3V45FcVH-123" value="Pregão" style="whiteSpace=wrap;strokeWidth=2;rounded=1;labelBackgroundColor=none;fillColor=#182E3E;strokeColor=#FFFFFF;fontColor=#FFFFFF;" parent="HAM1l17IBcfT3V45FcVH-170" vertex="1">
          <mxGeometry x="360" y="142" width="108" height="54" as="geometry" />
        </mxCell>
        <mxCell id="HAM1l17IBcfT3V45FcVH-124" value="Sem ata" style="whiteSpace=wrap;strokeWidth=2;rounded=1;labelBackgroundColor=none;fillColor=#182E3E;strokeColor=#FFFFFF;fontColor=#FFFFFF;" parent="HAM1l17IBcfT3V45FcVH-170" vertex="1">
          <mxGeometry x="271" y="270" width="118" height="54" as="geometry" />
        </mxCell>
        <mxCell id="HAM1l17IBcfT3V45FcVH-125" value="Com ata" style="whiteSpace=wrap;strokeWidth=2;rounded=1;labelBackgroundColor=none;fillColor=#182E3E;strokeColor=#FFFFFF;fontColor=#FFFFFF;" parent="HAM1l17IBcfT3V45FcVH-170" vertex="1">
          <mxGeometry x="523" y="270" width="119" height="54" as="geometry" />
        </mxCell>
        <mxCell id="HAM1l17IBcfT3V45FcVH-126" value="Concurso" style="whiteSpace=wrap;strokeWidth=2;rounded=1;labelBackgroundColor=none;fillColor=#182E3E;strokeColor=#FFFFFF;fontColor=#FFFFFF;" parent="HAM1l17IBcfT3V45FcVH-170" vertex="1">
          <mxGeometry x="518" y="142" width="125" height="54" as="geometry" />
        </mxCell>
        <mxCell id="HAM1l17IBcfT3V45FcVH-127" value="Leilão" style="whiteSpace=wrap;strokeWidth=2;rounded=1;labelBackgroundColor=none;fillColor=#182E3E;strokeColor=#FFFFFF;fontColor=#FFFFFF;" parent="HAM1l17IBcfT3V45FcVH-170" vertex="1">
          <mxGeometry x="693" y="142" width="103" height="54" as="geometry" />
        </mxCell>
        <mxCell id="HAM1l17IBcfT3V45FcVH-128" value="Contratação direta" style="whiteSpace=wrap;strokeWidth=2;rounded=1;labelBackgroundColor=none;fillColor=#182E3E;strokeColor=#FFFFFF;fontColor=#FFFFFF;" parent="HAM1l17IBcfT3V45FcVH-170" vertex="1">
          <mxGeometry x="846" y="142" width="196" height="54" as="geometry" />
        </mxCell>
        <mxCell id="HAM1l17IBcfT3V45FcVH-129" value="Inexigibilidade" style="whiteSpace=wrap;strokeWidth=2;rounded=1;labelBackgroundColor=none;fillColor=#182E3E;strokeColor=#FFFFFF;fontColor=#FFFFFF;" parent="HAM1l17IBcfT3V45FcVH-170" vertex="1">
          <mxGeometry x="692" y="270" width="165" height="54" as="geometry" />
        </mxCell>
        <mxCell id="HAM1l17IBcfT3V45FcVH-130" value="Dispensa" style="whiteSpace=wrap;strokeWidth=2;rounded=1;labelBackgroundColor=none;fillColor=#182E3E;strokeColor=#FFFFFF;fontColor=#FFFFFF;" parent="HAM1l17IBcfT3V45FcVH-170" vertex="1">
          <mxGeometry x="1080" y="270" width="122" height="54" as="geometry" />
        </mxCell>
        <mxCell id="HAM1l17IBcfT3V45FcVH-131" value="" style="curved=1;startArrow=none;endArrow=block;exitX=0;exitY=0.66;entryX=0.5;entryY=0;labelBackgroundColor=none;strokeColor=#23445D;fontColor=default;" parent="HAM1l17IBcfT3V45FcVH-170" source="HAM1l17IBcfT3V45FcVH-142" target="HAM1l17IBcfT3V45FcVH-121" edge="1">
          <mxGeometry relative="1" as="geometry">
            <Array as="points">
              <mxPoint y="93" />
            </Array>
          </mxGeometry>
        </mxCell>
        <mxCell id="HAM1l17IBcfT3V45FcVH-133" value="" style="curved=1;startArrow=none;endArrow=block;exitX=0;exitY=0.93;entryX=0.5;entryY=0;labelBackgroundColor=none;strokeColor=#23445D;fontColor=default;" parent="HAM1l17IBcfT3V45FcVH-170" source="HAM1l17IBcfT3V45FcVH-142" target="HAM1l17IBcfT3V45FcVH-123" edge="1">
          <mxGeometry relative="1" as="geometry">
            <Array as="points">
              <mxPoint x="414" y="93" />
            </Array>
          </mxGeometry>
        </mxCell>
        <mxCell id="HAM1l17IBcfT3V45FcVH-134" value="" style="curved=1;startArrow=none;endArrow=block;exitX=0.22;exitY=1;entryX=0.5;entryY=0;labelBackgroundColor=none;strokeColor=#23445D;fontColor=default;" parent="HAM1l17IBcfT3V45FcVH-170" source="HAM1l17IBcfT3V45FcVH-123" target="HAM1l17IBcfT3V45FcVH-124" edge="1">
          <mxGeometry relative="1" as="geometry">
            <Array as="points">
              <mxPoint x="330" y="245" />
            </Array>
          </mxGeometry>
        </mxCell>
        <mxCell id="HAM1l17IBcfT3V45FcVH-135" value="" style="curved=1;startArrow=none;endArrow=block;exitX=1;exitY=0.95;entryX=0.5;entryY=0;labelBackgroundColor=none;strokeColor=#23445D;fontColor=default;" parent="HAM1l17IBcfT3V45FcVH-170" source="HAM1l17IBcfT3V45FcVH-123" target="HAM1l17IBcfT3V45FcVH-125" edge="1">
          <mxGeometry relative="1" as="geometry">
            <Array as="points">
              <mxPoint x="583" y="245" />
            </Array>
          </mxGeometry>
        </mxCell>
        <mxCell id="HAM1l17IBcfT3V45FcVH-136" value="" style="curved=1;startArrow=none;endArrow=block;exitX=0.31;exitY=1;entryX=0.5;entryY=0;labelBackgroundColor=none;strokeColor=#23445D;fontColor=default;" parent="HAM1l17IBcfT3V45FcVH-170" source="HAM1l17IBcfT3V45FcVH-142" target="HAM1l17IBcfT3V45FcVH-126" edge="1">
          <mxGeometry relative="1" as="geometry">
            <Array as="points">
              <mxPoint x="580" y="93" />
            </Array>
          </mxGeometry>
        </mxCell>
        <mxCell id="HAM1l17IBcfT3V45FcVH-137" value="" style="curved=1;startArrow=none;endArrow=block;exitX=0.69;exitY=1;entryX=0.5;entryY=0;labelBackgroundColor=none;strokeColor=#23445D;fontColor=default;" parent="HAM1l17IBcfT3V45FcVH-170" source="HAM1l17IBcfT3V45FcVH-142" target="HAM1l17IBcfT3V45FcVH-127" edge="1">
          <mxGeometry relative="1" as="geometry">
            <Array as="points">
              <mxPoint x="744" y="93" />
            </Array>
          </mxGeometry>
        </mxCell>
        <mxCell id="HAM1l17IBcfT3V45FcVH-138" value="" style="curved=1;startArrow=none;endArrow=block;exitX=1;exitY=0.88;entryX=0.5;entryY=0;labelBackgroundColor=none;strokeColor=#23445D;fontColor=default;" parent="HAM1l17IBcfT3V45FcVH-170" source="HAM1l17IBcfT3V45FcVH-142" target="HAM1l17IBcfT3V45FcVH-128" edge="1">
          <mxGeometry relative="1" as="geometry">
            <Array as="points">
              <mxPoint x="944" y="93" />
            </Array>
          </mxGeometry>
        </mxCell>
        <mxCell id="HAM1l17IBcfT3V45FcVH-139" value="" style="curved=1;startArrow=none;endArrow=block;exitX=0.19;exitY=1;entryX=0.5;entryY=0;labelBackgroundColor=none;strokeColor=#23445D;fontColor=default;" parent="HAM1l17IBcfT3V45FcVH-170" source="HAM1l17IBcfT3V45FcVH-128" target="HAM1l17IBcfT3V45FcVH-129" edge="1">
          <mxGeometry relative="1" as="geometry">
            <Array as="points">
              <mxPoint x="775" y="245" />
            </Array>
          </mxGeometry>
        </mxCell>
        <mxCell id="HAM1l17IBcfT3V45FcVH-140" value="" style="curved=1;startArrow=none;endArrow=block;exitX=0.86;exitY=1;entryX=0.5;entryY=0;labelBackgroundColor=none;strokeColor=#23445D;fontColor=default;" parent="HAM1l17IBcfT3V45FcVH-170" source="HAM1l17IBcfT3V45FcVH-128" target="HAM1l17IBcfT3V45FcVH-130" edge="1">
          <mxGeometry relative="1" as="geometry">
            <Array as="points">
              <mxPoint x="1141" y="245" />
            </Array>
          </mxGeometry>
        </mxCell>
        <mxCell id="HAM1l17IBcfT3V45FcVH-141" value="" style="curved=1;startArrow=none;endArrow=block;exitX=1;exitY=0.69;entryX=0.5;entryY=0;labelBackgroundColor=none;strokeColor=#23445D;fontColor=default;" parent="HAM1l17IBcfT3V45FcVH-170" source="HAM1l17IBcfT3V45FcVH-142" edge="1">
          <mxGeometry relative="1" as="geometry">
            <Array as="points">
              <mxPoint x="1221" y="93" />
            </Array>
            <mxPoint x="1221" y="130" as="targetPoint" />
          </mxGeometry>
        </mxCell>
        <mxCell id="HAM1l17IBcfT3V45FcVH-142" value="Módulo – Processos de Contratação" style="whiteSpace=wrap;strokeWidth=2;rounded=1;labelBackgroundColor=none;fillColor=#182E3E;strokeColor=#FFFFFF;fontColor=#FFFFFF;" parent="HAM1l17IBcfT3V45FcVH-170" vertex="1">
          <mxGeometry x="518" y="30" width="260" height="48" as="geometry" />
        </mxCell>
      </root>
    </mxGraphModel>
  </diagram>
</mxfile>
